<?xml version="1.0"?>
<svg width="2800" height="4000" xmlns="http://www.w3.org/2000/svg" xmlns:svg="http://www.w3.org/2000/svg" enable-background="new 0 0 2800 4000" version="1.1" xml:space="preserve">
 <g class="layer">
  <title>Layer 1</title>
  <path d="m2047.32,2.73c244.72,-0.73 488.76,-0.73 733.74,-0.73c1.4,0.49 1.86,0.99 2.98,2.25c2.53,4.16 2.17,7.89 2.3,11.53c0.18,5.33 0.08,10.66 0.08,15.99c0,1072.22 0.01,2144.43 -0.07,3216.64c0,8.9 1.53,18.01 -2.53,27.5c-8.6,5.15 -17.34,4.49 -25.95,4.49c-225.57,0.02 -451.15,0.02 -676.72,0.02c-4.67,0 -9.33,0.05 -14,0.11c-6.88,0.09 -10.49,3.27 -10.61,10.33c-0.07,4.66 -0.12,9.33 -0.12,13.99c0,221.91 0,443.82 0,665.73c0,6.99 0.22,14 -1.31,21.9c-0.11,3.03 -0.43,4.98 -2.37,7.36c-2.36,1.15 -4.03,1.16 -5.69,1.16c-93.82,-0.06 -187.65,0.11 -282.42,-0.4c-5.7,-6.67 -5.01,-14.14 -5.01,-21.38c-0.07,-75.97 -0.04,-151.94 -0.04,-227.91c0,-150.27 -0.03,-300.55 0.06,-450.82c0.01,-7.25 -1.19,-14.69 2.53,-22.5c6.36,-5.49 13.27,-4.34 19.82,-4.35c79.65,-0.11 159.29,-0.05 238.94,-0.07c22.63,0 22.64,-0.01 22.64,-22.63c0.01,-1074.09 0,-2148.18 0.13,-3222.27c0,-8.41 -2.39,-17.33 3.62,-25.94z" fill="#FBE224" id="svg_1" opacity="1"/>
  <path d="m744.68,4001.27c-244.72,0.73 -488.76,0.73 -733.74,0.73c-3.95,-2.58 -5.08,-5.88 -4.94,-9.79c0.11,-2.99 0,-6 0,-9c0,-1078.96 0,-2157.93 0.08,-3236.89c0,-6.44 -2.07,-13.46 4.09,-19.66c7.95,-2.51 15.21,-3.1 22.57,-3.1c230.55,0.02 461.1,0 691.65,0.07c6.25,0.01 12.71,-0.95 19.46,2.79c3.79,3.72 4.29,7.64 4.42,11.71c0.18,5.66 0.15,11.33 0.15,16.99c0,1073.38 0.01,2146.76 -0.12,3220.14c0,8.43 2.41,17.37 -3.62,26.01z" fill="#FBE224" id="svg_2" opacity="1"/>
  <path d="m12.55,727.56c-2.13,1.55 -2.14,3.24 -2.15,4.89c-0.03,3.67 -0.03,7.34 -0.03,11c0,1080.57 0,2161.13 0,3241.7c0,4.99 -0.06,9.99 -0.23,15.92c-2.81,0.93 -5.47,0.93 -8.14,0.93c0,-1333.14 0,-2666.28 0,-4000c681.38,0 1362.75,0 2045.06,0c1.04,3.99 1.22,7.99 1.23,11.98c0.01,1083.18 0.01,2166.35 -0.02,3249.52c0,16.37 1.9,14.28 -14.38,14.3c-89.32,0.06 -178.64,0.02 -268.89,0c-1.46,-0.44 -1.99,-0.86 -3.04,-2.14c-2.34,-4.24 -2.22,-7.95 -2.31,-11.6c-0.14,-6.67 -0.07,-13.33 -0.07,-20c0,-828.56 0,-1657.12 -0.01,-2485.68c0,-7.66 0.23,-15.33 -0.44,-23.82c-0.78,-5.29 -2.37,-9.14 -6.57,-11.5c-1.13,-0.63 -1.96,-1.79 -2.89,-2.74c-40.83,-41.57 -83.63,-81.14 -124.71,-122.47c-62.67,-63.05 -126.28,-125.18 -189.79,-187.39c-43.77,-42.87 -86.28,-87.04 -130.8,-129.11c-46.97,-44.39 -91.14,-91.6 -138.06,-135.99c-45.01,-42.58 -88.01,-87.15 -132.01,-130.74c-2.29,-2.27 -4.63,-3.59 -8.29,-4.69c-4.62,-1.57 -8.63,-1.5 -12.61,-1.51c-86.43,-0.05 -172.86,-0.05 -259.3,0c-2.32,0 -4.65,0.03 -7.73,0.64c-6.24,2.65 -8.73,8.12 -12.7,12.06c-35.23,34.97 -69.51,70.94 -105.57,105.03c-48.2,45.57 -93.43,94.11 -141.61,139.62c-44.58,42.11 -86.39,87 -130.98,129.03c-48.03,45.26 -92.98,93.61 -140.93,138.88c-46.04,43.49 -89.46,89.57 -135.23,133.27c-18.55,17.71 -37.02,35.5 -55.19,53.59c-3.2,3.18 -7.05,4.92 -11.61,7.02z" fill="#000000" fill-opacity="0" id="svg_3" opacity="1" transform="matrix(1 0 0 1 0 0)"/>
  <path d="m744.94,4002c-0.82,-3.33 -0.61,-6.65 -0.61,-9.98c0.02,-1086.31 0.01,-2172.63 0.01,-3258.94c0,-1 -0.01,-2 0.48,-4.76c3.73,-4.87 7.88,-4.59 11.82,-4.6c87.25,-0.2 174.5,-0.19 261.75,-0.01c2.98,0 6.01,-0.06 9.77,1.59c1.49,0.77 2.05,1.14 3.24,2.31c2.84,4.37 2.85,8.4 2.94,12.4c0.14,6.66 0.08,13.33 0.08,19.99c0.01,836.18 0,1672.36 0.02,2509.4c-0.16,5.03 1.28,8.03 4.47,11.25c28.59,28.9 58.69,56.26 87.32,85.1c77,77.58 155.52,153.62 233.27,230.43c44.56,44.02 88.14,89.08 133.71,132.04c48.27,45.51 93.47,94.11 141.67,139.63c40.24,38 78.55,77.88 118.13,116.51c4.07,3.97 8.2,7.89 9.73,14.43c0.17,1.16 0.17,1.64 -0.29,2.66c-339.16,0.55 -677.87,0.55 -1017.51,0.55z" fill="#000000" fill-opacity="0" id="svg_4" opacity="1" transform="matrix(1 0 0 1 0 0)"/>
  <path d="m2051.34,4000.45c0.77,-1.73 0.93,-2.93 1.05,-4.74c2.07,-5.96 5.49,-10.32 9.57,-14.39c37.78,-37.63 74.68,-76.19 113.36,-112.87c45.97,-43.59 89.26,-89.86 135.28,-133.32c45.82,-43.27 88.81,-89.37 134.59,-132.61c46.78,-44.19 90.69,-91.25 137.44,-135.4c45.57,-43.05 88.71,-88.5 133.81,-131.99c17.74,-17.11 35.98,-33.71 53.15,-51.41c3.14,-3.23 6.99,-5.02 11.47,-7.28c1.67,-5.72 1.09,-11.06 1.09,-16.38c0.03,-1079.73 0.03,-2159.45 0.04,-3239.18c0,-5 0.04,-10 0.17,-15.93c0.28,-1.32 0.46,-1.72 1.14,-2.53c6.5,-0.42 12.5,-0.42 18.5,-0.42c0,1333.09 0,2666.18 0,4000c-249.37,0 -498.75,0 -749.06,0c-1.36,-0.34 -1.78,-0.67 -1.6,-1.55z" fill="#000000" fill-opacity="0" id="svg_5" opacity="1"/>
  <path d="m2051.02,3999.94c0.95,0.32 0.96,0.67 0.98,1.54c-96.04,0.52 -192.08,0.52 -289.06,0.52c-0.9,-0.41 -0.85,-0.81 -0.73,-1.82c0.35,-0.88 0.61,-1.15 1.34,-1.08c3.76,0.53 7.07,0.86 10.38,0.86c92.05,0.02 184.1,0.01 277.09,-0.02z" fill="#FEF7C5" id="svg_6" opacity="1"/>
  <path d="m2783.5,2c0.29,0.54 -0.01,1.03 -0.71,1.74c-0.45,-0.05 -0.58,-0.37 -0.75,-1.22c-0.04,-0.52 0.96,-0.52 1.46,-0.52z" fill="#FEF9D4" id="svg_7" opacity="1"/>
  <path d="m1764,3998.55c0,0.9 -0.85,1.01 -1.28,1.02c-2.39,-3.59 -5.64,-6.03 -8.46,-8.82c-35.07,-34.68 -70.18,-69.32 -105.29,-103.95c-46.71,-46.08 -93.42,-92.16 -140.15,-138.21c-45.55,-44.89 -91.12,-89.74 -136.68,-134.62c-88.99,-87.67 -177.98,-175.35 -266.96,-263.04c-24.9,-24.53 -49.78,-49.08 -74.8,-74.27c2.33,-3.82 5.72,-4.77 9.56,-4.89c4.33,-0.13 8.66,-0.19 12.99,-0.19c229.26,0 458.51,-0.02 687.77,0.1c7.14,0 14.73,-1.9 21.98,3.55c0.64,0.77 1.13,1.61 1.26,2.08c0.1,128.11 0.07,255.76 0.06,383.4c-0.01,112.31 0,224.63 0,337.84z" fill="#FCD22D" id="svg_8" opacity="1"/>
  <path d="m2780.7,3276c-0.25,3.33 -3.21,5.12 -5.52,7.4c-56.43,55.7 -112.89,111.36 -169.36,167c-90.38,89.06 -180.76,178.11 -271.15,267.16c-45.53,44.86 -91.06,89.73 -136.61,134.58c-48.16,47.42 -96.33,94.83 -145.1,142.6c-0.72,-4.63 -0.94,-9.62 -0.95,-14.62c-0.01,-229.58 -0.01,-459.16 -0.01,-688.74c0,-16.24 -0.91,-15.38 15.05,-15.38c237.58,0 475.16,0 713.65,0z" fill="#FCD22D" id="svg_9" opacity="1"/>
  <path d="m12.92,727.99c14.09,-16.5 30.49,-31.64 46.34,-47.32c44.05,-43.58 88.26,-87.01 132.39,-130.51c46.01,-45.35 92,-90.72 138.01,-136.06c91.11,-89.77 182.22,-179.53 273.33,-269.29c43.17,-42.53 86.36,-85.05 129.51,-127.6c2.61,-2.56 5.04,-5.3 7.89,-8.57c6.23,-1.86 6.93,2.48 7.53,6.42c0.77,4.94 0.49,9.97 0.49,14.97c0.01,225.47 0.03,450.94 -0.08,676.42c-0.01,6.8 1.83,14.07 -3.53,21.06c-0.62,0.79 -0.68,0.68 -0.62,0.7c-5.27,-0.05 -10.6,-0.2 -15.92,-0.2c-238.14,-0.01 -476.27,-0.01 -715.34,-0.02z" fill="#FCD22D" id="svg_10" opacity="1"/>
  <path d="m1763.45,3275.07c-243.88,0.93 -487.62,0.93 -732.28,0.94c-1.12,-3.31 -1.48,-6.63 -1.48,-9.94c-0.02,-844.67 -0.02,-1689.35 -0.01,-2534.02c0,-0.67 0.01,-1.33 0.06,-2.92c2.14,-4.66 5.76,-5.12 9.5,-5.33c4,-0.22 8,-0.22 11.99,-0.22c229.23,-0.01 458.45,0 687.68,0c7.32,0 14.73,-0.53 22.29,3.9c2.44,1.61 2.43,3.3 2.45,4.96c0.03,3.33 0.03,6.66 0.03,10c0,839.57 0,1679.14 -0.01,2518.71c0,4.33 -0.05,8.66 -0.22,13.92z" fill="#FBE224" id="svg_11" opacity="1"/>
  <path d="m1761.79,727.36c-238.18,0.62 -476.65,0.63 -715.12,0.65c-4.99,0 -9.99,0.06 -15.94,0.14c-0.95,0.05 -0.83,0.01 -0.86,0.07c-2.79,-2.65 -4.04,-5.91 -4.11,-9.79c-0.08,-4.33 -0.18,-8.65 -0.18,-12.98c0,-225.05 -0.02,-450.1 0.09,-675.15c0,-7.15 -1.81,-14.72 3.6,-21.94c4,0.07 5.83,2.6 7.93,4.68c40.95,40.53 81.51,81.45 122.9,121.52c42.35,41 84.07,82.63 126.15,123.9c45.16,44.29 90.14,88.76 135.2,133.15c45.77,45.1 91.53,90.2 137.3,135.3c67.59,66.61 135.17,133.23 203.04,200.45z" fill="#FCD22D" id="svg_12" opacity="1"/>
  <path d="m1029.86,7.01c0.2,15.42 0.14,30.08 0.14,44.74c-0.01,219.87 0,439.74 -0.01,659.61c0,5 -0.05,10 -0.11,15.95c-3.01,0.73 -5.99,0.29 -8.97,0.29c-89.65,-0.03 -179.3,-0.03 -268.94,-0.01c-2,0 -3.99,0.18 -6.89,0.5c-0.96,-5.12 -1.07,-10.45 -1.07,-15.77c-0.01,-230.06 0,-460.12 -0.09,-690.18c0,-4.47 1.67,-9.36 -2.53,-13.77c-0.79,-2.23 -0.1,-3.71 1.9,-3.85c2.98,-0.22 5.97,-0.2 8.96,-0.2c88.71,-0.01 177.42,-0.03 266.12,0.08c3.76,0 7.99,-1.62 11.49,2.61z" fill="#FBE224" id="svg_13" opacity="1"/>
 </g>
</svg>